<?xml version="1.0" standalone="no"?>
<!DOCTYPE svg PUBLIC "-//W3C//DTD SVG 20010904//EN"
 "http://www.w3.org/TR/2001/REC-SVG-20010904/DTD/svg10.dtd">
<svg version="1.0" xmlns="http://www.w3.org/2000/svg"
 width="500.000000pt" height="500.000000pt" viewBox="0 0 500.000000 500.000000"
 preserveAspectRatio="xMidYMid meet">

<g transform="translate(0.000000,500.000000) scale(0.100000,-0.100000)"
fill="#000000" stroke="none">
<path d="M3272 4316 c-18 -6 -30 -15 -26 -19 4 -4 -2 -7 -13 -7 -11 0 -23 -3
-27 -7 -4 -5 -11 -8 -14 -9 -20 -2 -296 -125 -307 -136 -6 -6 0 -5 12 1 13 7
24 7 28 2 8 -14 -8 -21 -39 -15 -30 5 -111 -28 -99 -41 5 -4 3 -5 -4 -1 -6 3
-23 1 -37 -5 -21 -10 -34 -9 -65 3 -37 15 -39 15 -36 -3 3 -17 1 -18 -28 -5
-22 8 -32 19 -32 34 0 11 -5 25 -9 29 -5 4 -6 2 -2 -4 9 -17 -35 -18 -52 -1
-6 6 -27 11 -47 10 -19 -1 -35 3 -35 8 0 6 -5 10 -10 10 -6 0 0 -16 12 -35 31
-47 44 -45 39 5 -1 11 1 10 10 -3 8 -13 7 -22 -1 -32 -10 -12 -4 -25 31 -67
24 -29 51 -61 59 -72 28 -36 244 -270 363 -394 65 -68 117 -126 114 -128 -13
-13 -585 -154 -937 -231 -63 -14 -125 -29 -137 -34 -13 -5 -23 -5 -23 -1 0 4
-21 30 -46 57 -25 28 -66 74 -92 104 -26 30 -64 72 -85 93 -33 33 -36 41 -26
59 8 15 8 19 0 15 -7 -5 -11 2 -11 16 0 18 -2 20 -10 8 -5 -8 -7 -24 -4 -35
l5 -20 -12 20 c-7 11 -23 28 -36 38 -13 10 -23 27 -23 38 0 10 -6 19 -13 19
-19 0 -60 47 -53 59 4 6 1 9 -7 5 -8 -3 -26 9 -42 28 -15 18 -53 60 -84 93
-107 114 -152 168 -148 180 3 6 -4 12 -14 12 -28 2 -23 -21 11 -60 16 -19 30
-38 30 -41 0 -4 9 -16 20 -28 10 -11 26 -35 34 -52 8 -17 34 -51 56 -76 23
-25 71 -81 106 -125 36 -44 77 -94 92 -110 25 -27 40 -52 42 -73 1 -4 10 -17
21 -28 l20 -21 -23 2 c-13 1 -26 3 -31 4 -4 0 -5 15 -2 31 3 18 1 30 -5 30 -6
0 -9 -4 -6 -9 11 -17 -25 -20 -42 -3 -10 9 -34 26 -53 36 -44 24 -151 99 -209
146 -76 61 -149 110 -153 102 -21 -35 -248 -835 -239 -843 4 -4 34 -22 67 -40
114 -61 190 -118 310 -233 141 -135 152 -127 -122 -96 -98 11 -183 18 -190 16
-7 -3 -15 -1 -18 4 -8 13 -52 13 -60 -1 -8 -13 -6 -15 24 -24 18 -5 22 -4 16
5 -6 9 -4 11 4 5 22 -13 -3 -27 -31 -16 -18 7 -29 6 -38 -2 -10 -9 -11 -9 -5
2 6 10 4 12 -4 7 -7 -5 -10 -14 -7 -22 3 -9 -4 -16 -22 -20 -15 -4 -30 -12
-34 -18 -4 -6 -10 -3 -14 9 -5 11 -3 20 4 23 7 2 12 8 12 14 0 5 -13 -1 -29
-15 -16 -13 -47 -28 -67 -32 -21 -4 -44 -15 -52 -26 -13 -19 -38 -25 -44 -11
-1 4 -12 -1 -22 -12 -16 -16 -17 -18 -3 -13 10 4 17 1 17 -6 0 -8 4 -6 10 3 5
8 10 10 10 4 0 -5 -7 -19 -15 -30 -13 -16 -14 -16 -9 -1 3 9 1 17 -5 17 -6 0
-11 -7 -11 -15 0 -8 -5 -15 -10 -15 -6 0 0 -11 12 -24 13 -13 27 -21 32 -18 5
3 6 1 3 -4 -3 -6 35 -50 85 -100 78 -76 256 -269 469 -509 l56 -62 49 34 c136
94 225 153 233 153 5 0 20 9 33 20 14 10 27 17 30 15 3 -3 13 4 23 15 20 22
44 28 26 6 -9 -11 -8 -15 5 -20 9 -3 22 -2 28 3 7 6 18 6 26 1 8 -5 18 -6 22
-4 4 3 16 0 25 -5 11 -6 13 -11 5 -11 -7 0 -11 -4 -7 -10 3 -6 15 -6 30 0 19
7 23 6 18 -5 -3 -8 -10 -15 -16 -15 -6 0 -8 -3 -4 -6 9 -9 -18 -34 -128 -115
-181 -134 -364 -252 -380 -245 -9 3 -13 2 -10 -4 3 -6 -3 -10 -15 -10 -12 0
-19 4 -16 9 6 8 -23 25 -30 18 -5 -5 36 -151 45 -160 5 -5 15 -9 22 -11 25 -4
91 -39 114 -60 45 -42 71 -57 165 -92 184 -70 408 -158 718 -281 221 -88 319
-122 334 -117 26 8 237 109 258 124 23 16 302 129 566 229 131 50 264 102 294
114 l55 23 81 244 c45 135 85 253 89 263 7 17 -2 17 -146 12 -85 -3 -167 -8
-184 -10 -22 -4 -26 -2 -15 5 8 5 41 10 73 10 31 0 57 4 57 9 0 5 28 12 63 16
34 3 75 8 90 10 15 2 35 9 43 16 12 10 17 10 23 0 7 -11 30 44 126 303 20 54
32 102 28 106 -4 5 -98 31 -208 59 -246 63 -383 100 -371 101 5 0 3 7 -4 15
-10 12 -10 15 3 15 8 0 20 7 27 15 6 7 33 17 58 20 26 4 62 8 80 11 18 2 50
13 70 23 l37 19 -85 6 c-47 3 -170 8 -275 12 -104 3 -228 10 -275 15 -47 5
-116 9 -155 8 l-70 0 24 -20 c13 -10 68 -45 123 -75 91 -51 298 -190 298 -200
0 -12 -88 36 -185 101 -106 70 -218 137 -298 177 -20 10 -76 43 -123 74 -82
53 -87 55 -105 38 -11 -9 -17 -19 -14 -22 2 -3 -3 -11 -13 -19 -9 -8 -12 -12
-5 -9 18 9 39 -95 24 -122 -6 -12 -7 -22 -1 -24 15 -5 18 -138 3 -153 -18 -18
-16 -32 5 -40 15 -6 12 -11 -18 -36 -19 -16 -29 -29 -24 -29 6 0 110 11 230
25 121 14 266 28 325 33 l105 7 42 -32 42 -32 -43 -5 c-83 -10 -415 -26 -567
-27 l-155 -1 75 -18 c112 -26 297 -67 365 -81 33 -7 55 -14 48 -16 -8 -3 -6
-14 8 -37 11 -19 18 -47 17 -64 -1 -19 5 -39 16 -51 11 -12 16 -21 13 -21 -3
0 4 -10 16 -23 12 -13 28 -21 35 -19 7 3 12 -6 12 -23 0 -20 4 -26 16 -21 8 3
12 2 9 -4 -3 -6 1 -10 9 -10 20 0 20 -14 2 -30 -12 -9 -24 -6 -58 15 -36 22
-163 110 -243 169 -12 9 -30 17 -42 19 -12 1 -28 9 -37 16 -9 7 -16 10 -16 6
0 -4 -15 4 -32 17 -73 54 -57 34 72 -92 81 -80 126 -130 111 -125 -18 6 -22 4
-15 -6 14 -24 12 -50 -4 -44 -12 4 -13 3 -3 -9 14 -17 3 -62 -30 -127 -11 -20
-19 -44 -19 -53 0 -9 -4 -16 -10 -16 -5 0 -12 -11 -16 -25 -4 -14 -8 -24 -11
-22 -2 3 -17 -7 -32 -22 -43 -39 -59 -51 -71 -51 -5 0 -10 -7 -10 -15 0 -9
-12 -20 -27 -26 -16 -6 -41 -17 -57 -25 -21 -11 -32 -12 -40 -4 -7 7 -12 132
-15 385 -1 206 -6 375 -10 375 -3 -1 -62 -30 -131 -66 -228 -117 -485 -243
-504 -246 -10 -2 -23 4 -29 13 -8 13 14 54 109 203 222 348 269 423 319 510
28 48 78 130 112 182 l63 96 -63 30 c-139 66 -186 88 -191 88 -3 0 -62 27
-132 60 -69 33 -128 60 -131 60 -6 0 -70 -140 -78 -173 -10 -38 -29 -48 -21
-11 3 16 17 105 31 197 13 92 27 172 30 177 3 4 46 -16 96 -46 145 -87 188
-107 221 -100 16 3 38 1 48 -4 14 -7 21 -6 27 4 4 8 35 22 68 31 33 9 143 43
245 75 263 83 528 155 536 147 5 -5 -63 -145 -120 -245 -66 -118 -156 -291
-156 -301 0 -5 17 -11 38 -14 431 -64 462 -68 462 -56 0 5 -15 9 -34 9 -19 0
-37 4 -40 8 -2 4 12 7 32 5 31 -2 33 -1 10 5 -20 5 -25 11 -19 21 6 8 6 24 0
38 -8 21 -5 27 12 25 3 -1 6 19 7 43 0 28 8 55 21 73 11 16 18 31 16 34 -9 8
16 141 30 161 8 12 15 18 15 14 0 -24 39 34 45 66 4 21 14 41 21 44 8 3 14 13
14 22 0 10 18 37 40 61 22 24 40 45 40 48 0 3 35 57 78 121 69 102 99 160 94
183 -1 4 5 23 13 42 26 63 21 74 -47 105 l-63 29 -109 -107 c-61 -58 -104 -98
-96 -88 10 14 11 20 2 26 -9 5 -6 13 8 29 12 12 25 22 30 22 12 0 9 22 -5 32
-6 5 -5 8 3 8 6 0 12 4 12 9 0 10 -11 9 -62 -4 -31 -8 -71 2 -63 16 4 5 -5 13
-19 19 -15 5 -28 20 -32 35 -4 15 -15 28 -29 31 -33 8 -65 -4 -58 -22 3 -7 0
-14 -6 -14 -8 0 -11 82 -11 280 0 154 -3 280 -7 279 -5 0 -23 -6 -41 -13z
m-578 -252 c9 -3 13 -11 10 -16 -4 -6 -10 -5 -14 3 -7 10 -12 10 -27 -2 -16
-13 -17 -13 -4 4 15 19 14 19 35 11z m-1687 -1610 c-3 -3 -12 -4 -19 -1 -8 3
-5 6 6 6 11 1 17 -2 13 -5z m2398 -292 c-3 -3 -11 0 -18 7 -9 10 -8 11 6 5 10
-3 15 -9 12 -12z m204 -147 c92 -70 141 -118 129 -130 -2 -2 -41 8 -86 24 -80
27 -156 79 -188 127 -12 17 -11 23 4 42 9 12 22 20 28 18 6 -2 57 -39 113 -81z
m-309 -329 c0 -2 -7 -7 -16 -10 -8 -3 -12 -2 -9 4 6 10 25 14 25 6z m65 -6
c-3 -5 -18 -9 -33 -9 l-27 1 30 8 c17 4 31 8 33 9 2 0 0 -3 -3 -9z m142 -6
c-3 -3 -12 -4 -19 -1 -8 3 -5 6 6 6 11 1 17 -2 13 -5z"/>
<path d="M2370 4215 c7 -9 15 -13 17 -11 7 7 -7 26 -19 26 -6 0 -6 -6 2 -15z"/>
<path d="M3697 3763 c3 -7 6 -13 8 -13 1 0 7 6 13 13 8 10 6 13 -7 13 -11 0
-17 -6 -14 -13z"/>
<path d="M3610 3710 c0 -5 5 -10 10 -10 6 0 10 5 10 10 0 6 -4 10 -10 10 -5 0
-10 -4 -10 -10z"/>
<path d="M3629 3691 c-8 -10 -19 -25 -22 -35 -4 -10 -16 -20 -27 -23 -11 -3
-20 -9 -20 -15 0 -17 38 11 70 52 31 39 30 55 -1 21z"/>
<path d="M1640 3554 c0 -5 9 -17 20 -27 11 -9 20 -13 20 -8 0 4 -9 16 -20 26
-11 10 -20 14 -20 9z"/>
<path d="M1715 3470 c-8 -13 15 -24 27 -12 6 6 4 11 -6 15 -8 3 -18 2 -21 -3z"/>
<path d="M790 2925 c0 -2 10 -10 23 -16 20 -11 21 -11 8 4 -13 16 -31 23 -31
12z"/>
<path d="M1030 2726 c0 -2 9 -6 20 -9 11 -3 18 -1 14 4 -5 9 -34 13 -34 5z"/>
<path d="M1040 2690 c-9 -6 -10 -10 -3 -10 6 0 15 5 18 10 8 12 4 12 -15 0z"/>
<path d="M1074 2689 c-7 -12 13 -29 36 -29 11 0 12 -2 3 -8 -9 -6 -7 -11 7
-20 16 -10 18 -9 15 8 -5 24 13 36 28 21 9 -9 7 -11 -8 -5 -16 5 -18 4 -8 -6
8 -8 16 -9 29 -2 16 9 15 11 -5 22 -13 6 -25 9 -28 6 -3 -3 -15 -1 -26 5 -15
8 -18 8 -12 -1 5 -8 3 -11 -6 -8 -8 3 -13 11 -11 17 3 14 -5 14 -14 0z"/>
<path d="M1032 2658 c-7 -7 -13 -23 -13 -37 l-2 -26 -5 25 c-4 23 -5 23 -12 5
-5 -13 -1 -24 14 -36 25 -21 42 -15 59 21 14 27 6 63 -10 47 -4 -5 -2 -12 6
-16 10 -6 9 -10 -4 -15 -9 -3 -15 -13 -12 -20 3 -8 0 -17 -8 -19 -20 -8 -26 3
-13 27 10 17 19 56 13 56 0 0 -6 -5 -13 -12z"/>
<path d="M1091 2616 c-10 -12 -8 -13 8 -9 12 3 21 9 21 14 0 14 -16 11 -29 -5z"/>
<path d="M981 2587 c2 -1 13 -9 24 -17 19 -14 19 -14 6 3 -7 9 -18 17 -24 17
-6 0 -8 -1 -6 -3z"/>
<path d="M936 2534 c-22 -21 -20 -31 2 -12 9 9 24 18 32 21 12 4 12 6 -2 6 -9
1 -24 -6 -32 -15z"/>
<path d="M4438 2538 c-10 -6 -125 -48 -148 -53 -66 -17 -102 -29 -92 -33 16
-5 -4 -32 -23 -32 -7 0 -16 -16 -19 -35 -4 -19 -11 -35 -16 -35 -6 0 -10 -38
-9 -87 l0 -88 125 130 c166 171 226 242 209 242 -8 0 -20 -4 -27 -9z"/>
<path d="M2617 2473 c3 -7 6 -13 8 -13 2 0 5 6 8 13 3 8 -1 14 -8 14 -7 0 -11
-6 -8 -14z"/>
<path d="M2640 2169 c0 -5 5 -7 10 -4 6 3 10 8 10 11 0 2 -4 4 -10 4 -5 0 -10
-5 -10 -11z"/>
<path d="M3768 1703 c7 -3 16 -2 19 1 4 3 -2 6 -13 5 -11 0 -14 -3 -6 -6z"/>
</g>
</svg>
